<mxfile host="Electron" agent="Mozilla/5.0 (Windows NT 10.0; Win64; x64) AppleWebKit/537.36 (KHTML, like Gecko) draw.io/26.0.16 Chrome/132.0.6834.196 Electron/34.2.0 Safari/537.36" version="26.0.16">
  <diagram name="Page-1" id="FN_KR2UL109o1K6cKLNO">
    <mxGraphModel dx="1050" dy="691" grid="0" gridSize="10" guides="1" tooltips="1" connect="1" arrows="1" fold="1" page="1" pageScale="1" pageWidth="850" pageHeight="1100" math="0" shadow="0">
      <root>
        <mxCell id="0" />
        <mxCell id="1" parent="0" />
        <mxCell id="9_xZ8QAylREwWZBGKsLv-2" value="Product" style="whiteSpace=wrap;html=1;align=center;" vertex="1" parent="1">
          <mxGeometry x="188" y="181" width="100" height="40" as="geometry" />
        </mxCell>
        <mxCell id="9_xZ8QAylREwWZBGKsLv-3" value="ProductId" style="ellipse;whiteSpace=wrap;html=1;align=center;fontStyle=4;" vertex="1" parent="1">
          <mxGeometry x="29" y="133" width="100" height="40" as="geometry" />
        </mxCell>
        <mxCell id="9_xZ8QAylREwWZBGKsLv-4" value="Name" style="ellipse;whiteSpace=wrap;html=1;align=center;" vertex="1" parent="1">
          <mxGeometry x="53" y="91" width="100" height="40" as="geometry" />
        </mxCell>
        <mxCell id="9_xZ8QAylREwWZBGKsLv-5" value="Description" style="ellipse;whiteSpace=wrap;html=1;align=center;" vertex="1" parent="1">
          <mxGeometry x="112" y="57" width="100" height="40" as="geometry" />
        </mxCell>
        <mxCell id="9_xZ8QAylREwWZBGKsLv-6" value="StockQuantity" style="ellipse;whiteSpace=wrap;html=1;align=center;" vertex="1" parent="1">
          <mxGeometry x="263" y="57" width="100" height="40" as="geometry" />
        </mxCell>
        <mxCell id="9_xZ8QAylREwWZBGKsLv-7" value="Price" style="ellipse;whiteSpace=wrap;html=1;align=center;" vertex="1" parent="1">
          <mxGeometry x="188" y="29" width="100" height="40" as="geometry" />
        </mxCell>
        <mxCell id="9_xZ8QAylREwWZBGKsLv-8" value="ImageURL" style="ellipse;whiteSpace=wrap;html=1;align=center;" vertex="1" parent="1">
          <mxGeometry x="311" y="93" width="100" height="40" as="geometry" />
        </mxCell>
        <mxCell id="9_xZ8QAylREwWZBGKsLv-9" value="CreatedAt" style="ellipse;whiteSpace=wrap;html=1;align=center;" vertex="1" parent="1">
          <mxGeometry x="325" y="133" width="100" height="40" as="geometry" />
        </mxCell>
        <mxCell id="9_xZ8QAylREwWZBGKsLv-10" value="" style="endArrow=none;html=1;rounded=0;exitX=0.5;exitY=0;exitDx=0;exitDy=0;entryX=0.986;entryY=0.685;entryDx=0;entryDy=0;entryPerimeter=0;" edge="1" parent="1" source="9_xZ8QAylREwWZBGKsLv-2" target="9_xZ8QAylREwWZBGKsLv-3">
          <mxGeometry width="50" height="50" relative="1" as="geometry">
            <mxPoint x="201" y="166" as="sourcePoint" />
            <mxPoint x="251" y="116" as="targetPoint" />
          </mxGeometry>
        </mxCell>
        <mxCell id="9_xZ8QAylREwWZBGKsLv-11" value="" style="endArrow=none;html=1;rounded=0;exitX=0.5;exitY=0;exitDx=0;exitDy=0;entryX=1;entryY=1;entryDx=0;entryDy=0;" edge="1" parent="1" source="9_xZ8QAylREwWZBGKsLv-2" target="9_xZ8QAylREwWZBGKsLv-4">
          <mxGeometry width="50" height="50" relative="1" as="geometry">
            <mxPoint x="248" y="191" as="sourcePoint" />
            <mxPoint x="138" y="170" as="targetPoint" />
          </mxGeometry>
        </mxCell>
        <mxCell id="9_xZ8QAylREwWZBGKsLv-12" value="" style="endArrow=none;html=1;rounded=0;exitX=0.5;exitY=0;exitDx=0;exitDy=0;entryX=1;entryY=1;entryDx=0;entryDy=0;" edge="1" parent="1" source="9_xZ8QAylREwWZBGKsLv-2" target="9_xZ8QAylREwWZBGKsLv-5">
          <mxGeometry width="50" height="50" relative="1" as="geometry">
            <mxPoint x="248" y="191" as="sourcePoint" />
            <mxPoint x="148" y="135" as="targetPoint" />
          </mxGeometry>
        </mxCell>
        <mxCell id="9_xZ8QAylREwWZBGKsLv-13" value="" style="endArrow=none;html=1;rounded=0;exitX=0.5;exitY=0;exitDx=0;exitDy=0;entryX=0.5;entryY=1;entryDx=0;entryDy=0;" edge="1" parent="1" source="9_xZ8QAylREwWZBGKsLv-2" target="9_xZ8QAylREwWZBGKsLv-7">
          <mxGeometry width="50" height="50" relative="1" as="geometry">
            <mxPoint x="248" y="191" as="sourcePoint" />
            <mxPoint x="207" y="101" as="targetPoint" />
          </mxGeometry>
        </mxCell>
        <mxCell id="9_xZ8QAylREwWZBGKsLv-14" value="" style="endArrow=none;html=1;rounded=0;exitX=0.5;exitY=0;exitDx=0;exitDy=0;entryX=0;entryY=1;entryDx=0;entryDy=0;" edge="1" parent="1" source="9_xZ8QAylREwWZBGKsLv-2" target="9_xZ8QAylREwWZBGKsLv-6">
          <mxGeometry width="50" height="50" relative="1" as="geometry">
            <mxPoint x="248" y="191" as="sourcePoint" />
            <mxPoint x="248" y="79" as="targetPoint" />
          </mxGeometry>
        </mxCell>
        <mxCell id="9_xZ8QAylREwWZBGKsLv-15" value="" style="endArrow=none;html=1;rounded=0;entryX=0;entryY=0.5;entryDx=0;entryDy=0;" edge="1" parent="1" target="9_xZ8QAylREwWZBGKsLv-8">
          <mxGeometry width="50" height="50" relative="1" as="geometry">
            <mxPoint x="236" y="180" as="sourcePoint" />
            <mxPoint x="303" y="102" as="targetPoint" />
          </mxGeometry>
        </mxCell>
        <mxCell id="9_xZ8QAylREwWZBGKsLv-16" value="" style="endArrow=none;html=1;rounded=0;exitX=0.5;exitY=0;exitDx=0;exitDy=0;entryX=0;entryY=0.5;entryDx=0;entryDy=0;" edge="1" parent="1" source="9_xZ8QAylREwWZBGKsLv-2" target="9_xZ8QAylREwWZBGKsLv-9">
          <mxGeometry width="50" height="50" relative="1" as="geometry">
            <mxPoint x="248" y="191" as="sourcePoint" />
            <mxPoint x="288" y="101" as="targetPoint" />
          </mxGeometry>
        </mxCell>
        <mxCell id="9_xZ8QAylREwWZBGKsLv-41" style="edgeStyle=orthogonalEdgeStyle;rounded=0;orthogonalLoop=1;jettySize=auto;html=1;exitX=0.5;exitY=1;exitDx=0;exitDy=0;entryX=0;entryY=0.5;entryDx=0;entryDy=0;" edge="1" parent="1" source="9_xZ8QAylREwWZBGKsLv-17" target="9_xZ8QAylREwWZBGKsLv-40">
          <mxGeometry relative="1" as="geometry" />
        </mxCell>
        <mxCell id="9_xZ8QAylREwWZBGKsLv-17" value="Category" style="whiteSpace=wrap;html=1;align=center;" vertex="1" parent="1">
          <mxGeometry x="808" y="181" width="100" height="40" as="geometry" />
        </mxCell>
        <mxCell id="9_xZ8QAylREwWZBGKsLv-18" value="CategoryId" style="ellipse;whiteSpace=wrap;html=1;align=center;fontStyle=4;" vertex="1" parent="1">
          <mxGeometry x="731" y="125" width="100" height="40" as="geometry" />
        </mxCell>
        <mxCell id="9_xZ8QAylREwWZBGKsLv-19" value="Name" style="ellipse;whiteSpace=wrap;html=1;align=center;" vertex="1" parent="1">
          <mxGeometry x="797" y="91" width="100" height="40" as="geometry" />
        </mxCell>
        <mxCell id="9_xZ8QAylREwWZBGKsLv-24" value="CreatedAt" style="ellipse;whiteSpace=wrap;html=1;align=center;" vertex="1" parent="1">
          <mxGeometry x="872" y="128" width="100" height="40" as="geometry" />
        </mxCell>
        <mxCell id="9_xZ8QAylREwWZBGKsLv-25" value="" style="endArrow=none;html=1;rounded=0;exitX=0.5;exitY=0;exitDx=0;exitDy=0;entryX=0.5;entryY=1;entryDx=0;entryDy=0;" edge="1" source="9_xZ8QAylREwWZBGKsLv-17" target="9_xZ8QAylREwWZBGKsLv-18" parent="1">
          <mxGeometry width="50" height="50" relative="1" as="geometry">
            <mxPoint x="821" y="166" as="sourcePoint" />
            <mxPoint x="871" y="116" as="targetPoint" />
          </mxGeometry>
        </mxCell>
        <mxCell id="9_xZ8QAylREwWZBGKsLv-26" value="" style="endArrow=none;html=1;rounded=0;exitX=0.5;exitY=0;exitDx=0;exitDy=0;entryX=0.5;entryY=1;entryDx=0;entryDy=0;" edge="1" source="9_xZ8QAylREwWZBGKsLv-17" target="9_xZ8QAylREwWZBGKsLv-19" parent="1">
          <mxGeometry width="50" height="50" relative="1" as="geometry">
            <mxPoint x="868" y="191" as="sourcePoint" />
            <mxPoint x="758" y="170" as="targetPoint" />
          </mxGeometry>
        </mxCell>
        <mxCell id="9_xZ8QAylREwWZBGKsLv-31" value="" style="endArrow=none;html=1;rounded=0;exitX=0.5;exitY=0;exitDx=0;exitDy=0;entryX=0.5;entryY=1;entryDx=0;entryDy=0;" edge="1" source="9_xZ8QAylREwWZBGKsLv-17" target="9_xZ8QAylREwWZBGKsLv-24" parent="1">
          <mxGeometry width="50" height="50" relative="1" as="geometry">
            <mxPoint x="868" y="191" as="sourcePoint" />
            <mxPoint x="908" y="101" as="targetPoint" />
          </mxGeometry>
        </mxCell>
        <mxCell id="9_xZ8QAylREwWZBGKsLv-42" style="edgeStyle=orthogonalEdgeStyle;rounded=0;orthogonalLoop=1;jettySize=auto;html=1;exitX=1;exitY=0.5;exitDx=0;exitDy=0;entryX=1;entryY=0.5;entryDx=0;entryDy=0;" edge="1" parent="1" source="9_xZ8QAylREwWZBGKsLv-40" target="9_xZ8QAylREwWZBGKsLv-17">
          <mxGeometry relative="1" as="geometry" />
        </mxCell>
        <mxCell id="9_xZ8QAylREwWZBGKsLv-40" value="LinkedTo" style="shape=rhombus;perimeter=rhombusPerimeter;whiteSpace=wrap;html=1;align=center;" vertex="1" parent="1">
          <mxGeometry x="898" y="247" width="74" height="60" as="geometry" />
        </mxCell>
        <mxCell id="9_xZ8QAylREwWZBGKsLv-43" value="BelongsTo" style="shape=rhombus;perimeter=rhombusPerimeter;whiteSpace=wrap;html=1;align=center;" vertex="1" parent="1">
          <mxGeometry x="502" y="175" width="120" height="60" as="geometry" />
        </mxCell>
        <mxCell id="9_xZ8QAylREwWZBGKsLv-44" value="" style="endArrow=none;html=1;rounded=0;exitX=1;exitY=0.5;exitDx=0;exitDy=0;entryX=0;entryY=0.5;entryDx=0;entryDy=0;shape=link;" edge="1" parent="1" source="9_xZ8QAylREwWZBGKsLv-2" target="9_xZ8QAylREwWZBGKsLv-43">
          <mxGeometry width="50" height="50" relative="1" as="geometry">
            <mxPoint x="482" y="264" as="sourcePoint" />
            <mxPoint x="532" y="214" as="targetPoint" />
          </mxGeometry>
        </mxCell>
        <mxCell id="9_xZ8QAylREwWZBGKsLv-45" value="" style="endArrow=none;html=1;rounded=0;exitX=1;exitY=0.5;exitDx=0;exitDy=0;entryX=0;entryY=0.5;entryDx=0;entryDy=0;" edge="1" parent="1" source="9_xZ8QAylREwWZBGKsLv-43" target="9_xZ8QAylREwWZBGKsLv-17">
          <mxGeometry width="50" height="50" relative="1" as="geometry">
            <mxPoint x="298" y="211" as="sourcePoint" />
            <mxPoint x="512" y="215" as="targetPoint" />
          </mxGeometry>
        </mxCell>
        <mxCell id="9_xZ8QAylREwWZBGKsLv-46" value="&lt;font style=&quot;color: rgb(51, 51, 255);&quot;&gt;N&lt;/font&gt;" style="text;html=1;align=center;verticalAlign=middle;resizable=0;points=[];autosize=1;strokeColor=none;fillColor=none;" vertex="1" parent="1">
          <mxGeometry x="284" y="199" width="27" height="26" as="geometry" />
        </mxCell>
        <mxCell id="9_xZ8QAylREwWZBGKsLv-47" value="&lt;font style=&quot;color: rgb(51, 51, 255);&quot;&gt;1&lt;/font&gt;" style="text;html=1;align=center;verticalAlign=middle;resizable=0;points=[];autosize=1;strokeColor=none;fillColor=none;" vertex="1" parent="1">
          <mxGeometry x="786" y="199" width="25" height="26" as="geometry" />
        </mxCell>
        <mxCell id="9_xZ8QAylREwWZBGKsLv-48" value="&lt;font color=&quot;#3333ff&quot;&gt;N&lt;/font&gt;" style="text;html=1;align=center;verticalAlign=middle;resizable=0;points=[];autosize=1;strokeColor=none;fillColor=none;" vertex="1" parent="1">
          <mxGeometry x="857" y="218" width="27" height="26" as="geometry" />
        </mxCell>
        <mxCell id="9_xZ8QAylREwWZBGKsLv-49" value="&lt;font style=&quot;color: rgb(51, 51, 255);&quot;&gt;1&lt;/font&gt;" style="text;html=1;align=center;verticalAlign=middle;resizable=0;points=[];autosize=1;strokeColor=none;fillColor=none;" vertex="1" parent="1">
          <mxGeometry x="908" y="181" width="25" height="26" as="geometry" />
        </mxCell>
      </root>
    </mxGraphModel>
  </diagram>
</mxfile>
